<svg width="20" height="16" viewBox="0 0 20 16" fill="none" xmlns="http://www.w3.org/2000/svg">
<path d="M18.75 14C19.1642 14 19.5 14.3358 19.5 14.75C19.5 15.1642 19.1642 15.5 18.75 15.5H0.75C0.335786 15.5 0 15.1642 0 14.75C0 14.3358 0.335786 14 0.75 14H18.75ZM19 7C19.4142 7 19.75 7.33579 19.75 7.75C19.75 8.16421 19.4142 8.5 19 8.5H0.75C0.335786 8.5 0 8.16421 0 7.75C0 7.33579 0.335786 7 0.75 7H19ZM18.75 0C19.1642 0 19.5 0.335786 19.5 0.75C19.5 1.16421 19.1642 1.5 18.75 1.5H0.75C0.335786 1.5 0 1.16421 0 0.75C0 0.335786 0.335786 0 0.75 0H18.75Z" fill="#1A1D20"/>
</svg>
